<mxfile host="app.diagrams.net" modified="2023-11-05T10:37:07.882Z" agent="Mozilla/5.0 (Windows NT 10.0; Win64; x64) AppleWebKit/537.36 (KHTML, like Gecko) Chrome/116.0.0.0 Safari/537.36 OPR/102.0.0.0" version="22.0.8" etag="3lh0UlFalcvv7AcawbOI" type="github">
  <diagram name="Page-1" id="1NdPhYnojbXSQFUqDI4X">
    <mxGraphModel>
      <root>
        <mxCell id="0" />
        <mxCell id="1" parent="0" />
      </root>
    </mxGraphModel>
  </diagram>
</mxfile>
